# xmcd CD database file
#
# Track frame offsets:
#	150
#	13039
#	24578
#	36197
#	46448
#	59982
#	71142
#	81910
#
# Disc length: 1273 seconds
#
# Revision: 0
# Processed by: cddbd v1.5.2PL0 Copyright (c) Steve Scherf et al.
# Submitted via: CDex 1.70beta2
#
DISCID=7104f708
DTITLE=Judy Garland - DAISO Female Singers Collection 4
DYEAR=2005
DGENRE=Jazz
TTITLE0=Over The Rainbow
TTITLE1=For Me and My Gal
TTITLE2=Cry Baby Cry
TTITLE3=Meet Me In St.Louis
TTITLE4=Zing Went The Strings Of My Heart
TTITLE5=It's A Great Day For The Irish
TTITLE6=After You've Gone
TTITLE7=I'm Always Chasing Rainbows
EXTD=YEAR: 2005
EXTT0=
EXTT1=
EXTT2=
EXTT3=
EXTT4=
EXTT5=
EXTT6=
EXTT7=
PLAYORDER=
